<svg xmlns="http://www.w3.org/2000/svg" viewBox="0 0 750 420" font-family="SimSun, serif">
  <defs>
    <linearGradient id="yang" x1="0%" y1="0%" x2="100%" y2="0%">
      <stop offset="0%" style="stop-color:#dc2626"/>
      <stop offset="100%" style="stop-color:#f87171"/>
    </linearGradient>
    <linearGradient id="yin" x1="0%" y1="0%" x2="100%" y2="0%">
      <stop offset="0%" style="stop-color:#6b7280"/>
      <stop offset="100%" style="stop-color:#9ca3af"/>
    </linearGradient>
  </defs>

  <text x="375" y="35" text-anchor="middle" fill="#1e293b" font-size="18" font-weight="bold">状态六爻编码 — 8步决策过程中的爻值变化</text>
  <text x="375" y="55" text-anchor="middle" fill="#64748b" font-size="12">任务：把盘子洗干净后放到柜台上</text>

  <!-- 每行一条爻，每步一列 -->
  <!-- 第0步（初始）到第7步（完成） -->
  <g transform="translate(120, 80)">
    <!-- 表头 -->
    <text x="-10" y="0" fill="#333" font-size="12" font-weight="bold">爻位/步骤</text>
    <text x="50" y="0" fill="#333" font-size="11">起点</text>
    <text x="120" y="0" fill="#333" font-size="11">到柜子</text>
    <text x="190" y="0" fill="#333" font-size="11">拿盘</text>
    <text x="260" y="0" fill="#333" font-size="11">去水槽</text>
    <text x="330" y="0" fill="#333" font-size="11">放入</text>
    <text x="400" y="0" fill="#333" font-size="11">洗净</text>
    <text x="470" y="0" fill="#333" font-size="11">取出</text>
    <text x="540" y="0" fill="#333" font-size="11">到柜台</text>
    <text x="610" y="0" fill="#333" font-size="11">放置</text>

    <!-- 各爻值（对应8步的初/二/三/四/五/上爻值） -->
    <!-- 初爻(根基)：0.1,0.1,0.7,0.7,0.1,0.1,0.1,0.7,0.7 -->
    <g transform="translate(0,30)">
      <text x="-10" y="5" fill="#dc2626" font-size="12" font-weight="bold">初爻</text>
      <text x="-40" y="5" fill="#666" font-size="10">(持有)</text>
      <rect x="45" y="-8" width="15" height="20" rx="3" fill="#9ca3af"/>
      <rect x="115" y="-8" width="15" height="20" rx="3" fill="#9ca3af"/>
      <rect x="185" y="-8" width="15" height="20" rx="3" fill="#dc2626"/>
      <rect x="255" y="-8" width="15" height="20" rx="3" fill="#dc2626"/>
      <rect x="325" y="-8" width="15" height="20" rx="3" fill="#9ca3af"/>
      <rect x="395" y="-8" width="15" height="20" rx="3" fill="#9ca3af"/>
      <rect x="465" y="-8" width="15" height="20" rx="3" fill="#9ca3af"/>
      <rect x="535" y="-8" width="15" height="20" rx="3" fill="#dc2626"/>
      <rect x="605" y="-8" width="15" height="20" rx="3" fill="#dc2626"/>
    </g>
    <!-- 二爻(位置)：0.1,0.35,0.35,0.6,0.6,0.6,0.6,0.85,0.85 -->
    <g transform="translate(0,60)">
      <text x="-10" y="5" fill="#6b7280" font-size="12" font-weight="bold">二爻</text>
      <text x="-40" y="5" fill="#666" font-size="10">(位置)</text>
      <rect x="45" y="-8" width="15" height="20" rx="3" fill="#9ca3af"/>
      <rect x="115" y="-8" width="15" height="20" rx="3" fill="#a3b8d0"/>
      <rect x="185" y="-8" width="15" height="20" rx="3" fill="#a3b8d0"/>
      <rect x="255" y="-8" width="15" height="20" rx="3" fill="#f87171"/>
      <rect x="325" y="-8" width="15" height="20" rx="3" fill="#f87171"/>
      <rect x="395" y="-8" width="15" height="20" rx="3" fill="#f87171"/>
      <rect x="465" y="-8" width="15" height="20" rx="3" fill="#f87171"/>
      <rect x="535" y="-8" width="15" height="20" rx="3" fill="#dc2626"/>
      <rect x="605" y="-8" width="15" height="20" rx="3" fill="#dc2626"/>
    </g>
    <!-- 三爻(进程)：0.1,0.2,0.3,0.4,0.5,0.6,0.7,0.8,0.85 -->
    <g transform="translate(0,90)">
      <text x="-10" y="5" fill="#6b7280" font-size="12" font-weight="bold">三爻</text>
      <text x="-40" y="5" fill="#666" font-size="10">(进程)</text>
      <rect x="45" y="-8" width="15" height="20" rx="3" fill="#9ca3af"/>
      <rect x="115" y="-8" width="15" height="20" rx="3" fill="#9ca3af"/>
      <rect x="185" y="-8" width="15" height="20" rx="3" fill="#9ca3af"/>
      <rect x="255" y="-8" width="15" height="20" rx="3" fill="#a3b8d0"/>
      <rect x="325" y="-8" width="15" height="20" rx="3" fill="#a3b8d0"/>
      <rect x="395" y="-8" width="15" height="20" rx="3" fill="#f87171"/>
      <rect x="465" y="-8" width="15" height="20" rx="3" fill="#f87171"/>
      <rect x="535" y="-8" width="15" height="20" rx="3" fill="#dc2626"/>
      <rect x="605" y="-8" width="15" height="20" rx="3" fill="#dc2626"/>
    </g>
    <!-- 四爻(状态)：0.2,0.2,0.2,0.2,0.25,0.7,0.85,0.85,0.85 -->
    <g transform="translate(0,120)">
      <text x="-10" y="5" fill="#6b7280" font-size="12" font-weight="bold">四爻</text>
      <text x="-40" y="5" fill="#666" font-size="10">(状态)</text>
      <rect x="45" y="-8" width="15" height="20" rx="3" fill="#9ca3af"/>
      <rect x="115" y="-8" width="15" height="20" rx="3" fill="#9ca3af"/>
      <rect x="185" y="-8" width="15" height="20" rx="3" fill="#9ca3af"/>
      <rect x="255" y="-8" width="15" height="20" rx="3" fill="#9ca3af"/>
      <rect x="325" y="-8" width="15" height="20" rx="3" fill="#a3b8d0"/>
      <rect x="395" y="-8" width="15" height="20" rx="3" fill="#dc2626"/>
      <rect x="465" y="-8" width="15" height="20" rx="3" fill="#dc2626"/>
      <rect x="535" y="-8" width="15" height="20" rx="3" fill="#dc2626"/>
      <rect x="605" y="-8" width="15" height="20" rx="3" fill="#dc2626"/>
    </g>
    <!-- 五爻(目标)：0.15,0.15,0.15,0.2,0.35,0.65,0.2,0.85,0.85 -->
    <g transform="translate(0,150)">
      <text x="-10" y="5" fill="#6b7280" font-size="12" font-weight="bold">五爻</text>
      <text x="-40" y="5" fill="#666" font-size="10">(目标)</text>
      <rect x="45" y="-8" width="15" height="20" rx="3" fill="#9ca3af"/>
      <rect x="115" y="-8" width="15" height="20" rx="3" fill="#9ca3af"/>
      <rect x="185" y="-8" width="15" height="20" rx="3" fill="#9ca3af"/>
      <rect x="255" y="-8" width="15" height="20" rx="3" fill="#a3b8d0"/>
      <rect x="325" y="-8" width="15" height="20" rx="3" fill="#a3b8d0"/>
      <rect x="395" y="-8" width="15" height="20" rx="3" fill="#dc2626"/>
      <rect x="465" y="-8" width="15" height="20" rx="3" fill="#a3b8d0"/>
      <rect x="535" y="-8" width="15" height="20" rx="3" fill="#dc2626"/>
      <rect x="605" y="-8" width="15" height="20" rx="3" fill="#dc2626"/>
    </g>
    <!-- 上爻(环境)：0.3,0.3,0.3,0.8,0.8,0.8,0.8,0.8,0.8 -->
    <g transform="translate(0,180)">
      <text x="-10" y="5" fill="#6b7280" font-size="12" font-weight="bold">上爻</text>
      <text x="-40" y="5" fill="#666" font-size="10">(环境)</text>
      <rect x="45" y="-8" width="15" height="20" rx="3" fill="#9ca3af"/>
      <rect x="115" y="-8" width="15" height="20" rx="3" fill="#9ca3af"/>
      <rect x="185" y="-8" width="15" height="20" rx="3" fill="#9ca3af"/>
      <rect x="255" y="-8" width="15" height="20" rx="3" fill="#dc2626"/>
      <rect x="325" y="-8" width="15" height="20" rx="3" fill="#dc2626"/>
      <rect x="395" y="-8" width="15" height="20" rx="3" fill="#dc2626"/>
      <rect x="465" y="-8" width="15" height="20" rx="3" fill="#dc2626"/>
      <rect x="535" y="-8" width="15" height="20" rx="3" fill="#dc2626"/>
      <rect x="605" y="-8" width="15" height="20" rx="3" fill="#dc2626"/>
    </g>
  </g>

  <!-- 图例 -->
  <g transform="translate(120, 310)">
    <rect x="0" y="0" width="580" height="40" rx="6" fill="#f8fafc" stroke="#cbd5e1" stroke-width="1"/>
    <rect x="20" y="12" width="15" height="15" rx="3" fill="#dc2626"/>
    <text x="42" y="24" fill="#333" font-size="11">阳爻(≥0.5)</text>
    <rect x="150" y="12" width="15" height="15" rx="3" fill="#9ca3af"/>
    <text x="172" y="24" fill="#333" font-size="11">阴爻(&lt;0.5)</text>
    <text x="300" y="24" fill="#64748b" font-size="11">红色=高值/阳性  灰色=低值/阴性</text>
  </g>

  <text x="375" y="385" text-anchor="middle" fill="#64748b" font-size="11">图2：状态六爻在8步决策过程中的变化。初爻和四爻的跃迁（阴→阳）是状态转换的关键信号。</text>
</svg>